<?xml version="1.0" standalone="no"?>
<!DOCTYPE svg PUBLIC "-//W3C//DTD SVG 20010904//EN"
 "http://www.w3.org/TR/2001/REC-SVG-20010904/DTD/svg10.dtd">
<svg version="1.0" xmlns="http://www.w3.org/2000/svg"
 width="32.000000pt" height="32.000000pt" viewBox="0 0 32.000000 32.000000"
 preserveAspectRatio="xMidYMid meet">

<g transform="translate(0.000000,32.000000) scale(0.100000,-0.100000)"
fill="#000000" stroke="none">
<path d="M92 304 c-107 -55 -121 -198 -26 -271 96 -73 238 -10 251 111 14 119
-120 214 -225 160z m-21 -120 c11 -14 13 -14 21 0 16 29 28 17 27 -26 -1 -33
-3 -37 -8 -18 -4 18 -13 25 -33 27 -22 1 -28 -3 -31 -25 -3 -18 -4 -13 -6 16
-1 44 8 52 30 26z m107 9 c-23 -4 -27 -10 -31 -41 l-4 -37 -1 43 c-2 41 -2 42
31 41 29 -2 29 -2 5 -6z m88 -36 c7 -21 9 -37 3 -37 -5 0 -9 5 -9 10 0 6 -9
10 -20 10 -11 0 -20 -4 -20 -10 0 -5 -4 -10 -10 -10 -5 0 -7 6 -5 13 20 56 27
68 37 65 6 -2 17 -21 24 -41z m-71 3 c-3 -5 -13 -10 -21 -10 -8 0 -14 5 -14
10 0 6 9 10 21 10 11 0 17 -4 14 -10z"/>
<path d="M230 159 c0 -5 5 -7 10 -4 6 3 10 8 10 11 0 2 -4 4 -10 4 -5 0 -10
-5 -10 -11z"/>
</g>
</svg>
